<svg xmlns="http://www.w3.org/2000/svg" viewBox="0 0 480 480" width="480" height="480" fill="none">
  <ellipse cx="240" cy="445" rx="130" ry="16" fill="#eaf4f7" opacity="0.5"/>

  <!-- Studio interface panel -->
  <rect x="90" y="60" width="300" height="160" rx="12" fill="#fff" stroke="#09799f" stroke-width="2"/>
  
  <!-- Instrumental waveform -->
  <path d="M110 110 Q130 90 150 115 Q170 140 190 105 Q210 80 230 120 Q250 150 270 110 Q290 85 310 125 Q330 145 350 115 Q370 95 380 120" 
        fill="none" stroke="#3a94b2" stroke-width="2.5" stroke-linecap="round"/>
  
  <!-- Empty vocal tracks -->
  <rect x="110" y="150" width="260" height="14" rx="3" fill="#eaf4f7" stroke="#9dc9d9" stroke-width="1"/>
  <text x="120" y="161" font-family="system-ui" font-size="9" fill="#3a94b2">Vocal 1</text>
  <rect x="110" y="172" width="260" height="14" rx="3" fill="#f8fafc" stroke="#cee4ec" stroke-width="1"/>
  <text x="120" y="183" font-family="system-ui" font-size="9" fill="#9dc9d9">Vocal 2</text>
  
  <!-- New song label -->
  <rect x="200" y="70" width="80" height="18" rx="4" fill="#57a202"/>
  <text x="240" y="83" font-family="system-ui" font-size="10" fill="#fff" text-anchor="middle" font-weight="600">NEW SONG</text>

  <!-- Chipmunk sitting / ready -->
  <g id="character">
    <path d="M310 320 Q340 295 350 255 Q355 230 330 235" fill="none" stroke="#c48a5a" stroke-width="9" stroke-linecap="round"/>
    <path d="M310 320 Q340 295 350 255 Q355 230 330 235" fill="none" stroke="#f5d0a9" stroke-width="5" stroke-linecap="round"/>
    
    <ellipse cx="240" cy="320" rx="38" ry="46" fill="#f5d0a9" stroke="#c48a5a" stroke-width="1.8"/>
    <ellipse cx="240" cy="332" rx="22" ry="26" fill="#fce8d0"/>
    
    <circle cx="240" cy="250" r="38" fill="#f5d0a9" stroke="#c48a5a" stroke-width="1.8"/>
    <ellipse cx="217" cy="260" rx="11" ry="10" fill="#f8c8a0"/>
    <ellipse cx="263" cy="260" rx="11" ry="10" fill="#f8c8a0"/>
    
    <ellipse cx="214" cy="222" rx="11" ry="14" fill="#f5d0a9" stroke="#c48a5a" stroke-width="1.5"/>
    <ellipse cx="214" cy="222" rx="5.5" ry="8" fill="#f8c8a0"/>
    <ellipse cx="266" cy="222" rx="11" ry="14" fill="#f5d0a9" stroke="#c48a5a" stroke-width="1.5"/>
    <ellipse cx="266" cy="222" rx="5.5" ry="8" fill="#f8c8a0"/>
    
    <ellipse cx="227" cy="246" rx="7.5" ry="9" fill="#fff" stroke="#333" stroke-width="1.3"/>
    <ellipse cx="253" cy="246" rx="7.5" ry="9" fill="#fff" stroke="#333" stroke-width="1.3"/>
    <circle cx="228.5" cy="247" r="3.3" fill="#333"/>
    <circle cx="254.5" cy="247" r="3.3" fill="#333"/>
    <circle cx="229.8" cy="245.5" r="1.2" fill="#fff"/>
    <circle cx="255.8" cy="245.5" r="1.2" fill="#fff"/>
    
    <ellipse cx="240" cy="262" rx="5.5" ry="4" fill="#c48a5a"/>
    <path d="M228 271 Q240 281 252 271" fill="none" stroke="#c48a5a" stroke-width="1.6" stroke-linecap="round"/>
    
    <path d="M212 278 Q240 286 268 278" fill="none" stroke="#09799f" stroke-width="2.3" stroke-linecap="round" opacity="0.85"/>
    
    <!-- Arms resting / ready on desk -->
    <path d="M210 300 Q185 310 175 340" fill="none" stroke="#c48a5a" stroke-width="6.5" stroke-linecap="round"/>
    <circle cx="173" cy="342" r="7" fill="#f5d0a9" stroke="#c48a5a" stroke-width="1.2"/>
    <path d="M270 300 Q295 310 305 340" fill="none" stroke="#c48a5a" stroke-width="6.5" stroke-linecap="round"/>
    <circle cx="307" cy="342" r="7" fill="#f5d0a9" stroke="#c48a5a" stroke-width="1.2"/>
    
    <ellipse cx="228" cy="380" rx="10" ry="14" fill="#f5d0a9" stroke="#c48a5a" stroke-width="1.5"/>
    <ellipse cx="252" cy="380" rx="10" ry="14" fill="#f5d0a9" stroke="#c48a5a" stroke-width="1.5"/>
    <ellipse cx="228" cy="395" rx="11" ry="5.5" fill="#c48a5a"/>
    <ellipse cx="252" cy="395" rx="11" ry="5.5" fill="#c48a5a"/>
  </g>
</svg>
